<mxfile host="app.diagrams.net" modified="2024-03-28T06:51:37.854Z" agent="Mozilla/5.0 (Macintosh; Intel Mac OS X 10_15_7) AppleWebKit/537.36 (KHTML, like Gecko) Chrome/122.0.0.0 Safari/537.36" version="23.1.7" etag="1GGIcrEyP8EChIxPn1gp" type="github">
  <diagram name="第 1 页" id="usbalDrP7b-8Sa6d0vUZ">
    <mxGraphModel>
      <root>
        <mxCell id="0" />
        <mxCell id="1" parent="0" />
      </root>
    </mxGraphModel>
  </diagram>
</mxfile>
